<?xml version="1.0" standalone="no"?>
<!DOCTYPE svg PUBLIC "-//W3C//DTD SVG 20010904//EN"
 "http://www.w3.org/TR/2001/REC-SVG-20010904/DTD/svg10.dtd">
<svg version="1.0" xmlns="http://www.w3.org/2000/svg"
 width="460.000000pt" height="460.000000pt" viewBox="0 0 460.000000 460.000000"
 preserveAspectRatio="xMidYMid meet">
<metadata>
Created by potrace 1.14, written by Peter Selinger 2001-2017
</metadata>
<g transform="translate(0.000000,460.000000) scale(0.100000,-0.100000)"
fill="#000000" stroke="none">
<path d="M243 4479 c9 -6 14 -15 11 -21 -4 -7 -2 -8 5 -4 14 9 -3 36 -23 36
-6 0 -3 -5 7 -11z"/>
<path d="M2870 4486 c0 -2 7 -7 16 -10 8 -3 12 -2 9 4 -6 10 -25 14 -25 6z"/>
<path d="M2790 4460 c-9 -6 -10 -10 -3 -10 6 0 15 5 18 10 8 12 4 12 -15 0z"/>
<path d="M2835 4450 c-4 -6 -11 -8 -16 -5 -5 4 -9 1 -9 -5 0 -6 -5 -8 -12 -4
-7 4 -8 3 -4 -4 7 -12 18 -9 56 18 9 6 10 10 3 10 -6 0 -15 -5 -18 -10z"/>
<path d="M2754 4431 c4 -6 16 -16 28 -22 15 -8 18 -8 14 0 -4 6 -16 16 -28 22
-15 8 -18 8 -14 0z"/>
<path d="M253 4417 c-9 -11 -9 -26 -3 -44 2 -5 4 -19 5 -33 2 -36 15 -70 26
-70 6 0 7 6 3 12 -11 17 -12 48 -4 53 4 3 6 -6 6 -18 -1 -12 2 -28 7 -34 6 -9
4 -15 -7 -19 -9 -3 -16 -16 -16 -28 1 -21 1 -21 15 -2 8 11 15 15 15 9 0 -7
-6 -18 -13 -25 -9 -10 -10 -23 -2 -56 6 -24 13 -40 16 -37 4 3 12 -1 18 -9 9
-11 9 -16 0 -22 -7 -4 -9 -3 -5 4 3 6 2 13 -3 16 -13 9 -24 -11 -14 -26 4 -7
6 -21 5 -30 -2 -10 2 -18 8 -18 6 0 8 4 5 10 -4 6 1 7 11 3 11 -4 13 -8 6 -11
-7 -2 -10 -8 -7 -13 4 -5 -1 -6 -9 -3 -11 4 -13 0 -9 -15 3 -12 13 -21 22 -22
12 0 11 -2 -4 -9 -11 -5 -15 -9 -8 -9 7 -1 17 -11 23 -23 11 -23 11 -23 -5 -3
-16 19 -17 19 -9 -15 4 -19 7 -43 6 -53 0 -9 2 -16 6 -13 4 2 8 -18 8 -46 1
-31 7 -54 15 -59 12 -7 12 -9 0 -9 -9 0 -10 -4 -4 -12 6 -7 9 -23 8 -36 -1
-17 2 -21 13 -17 12 4 13 3 3 -9 -8 -10 -10 -27 -5 -48 4 -18 8 -42 10 -53 4
-31 20 -114 24 -125 1 -3 2 -8 2 -11 -1 -4 10 -69 23 -145 13 -77 27 -156 30
-178 4 -21 9 -48 11 -60 5 -26 33 -183 79 -451 19 -110 37 -210 39 -221 2 -12
7 -37 10 -55 3 -19 21 -122 40 -229 19 -107 44 -249 55 -315 12 -66 23 -133
26 -150 3 -16 10 -52 15 -78 17 -82 25 -77 -120 -77 l-130 0 0 -169 0 -169
-47 -12 c-26 -6 -54 -17 -62 -23 -11 -9 -13 -9 -8 0 6 9 -1 9 -25 1 -18 -5
-39 -10 -46 -11 -6 0 -11 -7 -10 -16 2 -11 -3 -15 -17 -13 -70 10 -74 9 -91
-15 -9 -14 -11 -22 -5 -19 6 4 11 1 11 -6 0 -9 3 -10 8 -2 4 6 15 10 25 8 9
-1 15 2 11 7 -3 5 0 9 6 9 6 0 8 5 4 12 -4 7 -3 8 5 4 6 -4 8 -12 5 -18 -5 -8
-1 -9 10 -5 10 4 24 7 31 7 8 0 16 9 20 19 3 11 13 22 22 26 15 5 15 4 0 -13
-20 -22 -23 -37 -5 -25 7 4 24 9 38 9 14 1 25 3 25 4 0 1 11 3 25 6 14 2 35 6
47 9 23 5 23 5 23 -125 l0 -130 173 0 172 0 49 -220 c27 -121 53 -220 57 -220
4 0 6 -9 4 -20 -2 -11 3 -27 11 -35 10 -10 11 -15 4 -15 -8 0 -9 -7 -5 -17 4
-10 8 -22 8 -28 0 -5 11 -11 24 -11 23 -2 33 23 16 40 -5 4 -9 16 -9 27 -1 10
-2 29 -3 40 -1 19 -3 20 -18 8 -15 -13 -15 -12 -4 6 10 17 5 54 -33 224 -25
113 -46 208 -46 213 0 4 56 8 125 8 l125 0 0 45 c0 25 2 45 3 45 2 0 179 -95
393 -211 214 -116 422 -229 462 -250 40 -22 78 -37 84 -33 6 4 8 3 5 -3 -3 -5
34 -30 84 -56 49 -26 89 -44 89 -40 0 4 7 -2 16 -13 8 -10 12 -13 9 -6 -4 8
16 -3 44 -23 28 -20 55 -34 60 -31 14 9 21 -20 8 -33 -8 -8 -8 -11 2 -11 7 0
9 -5 6 -10 -4 -6 -10 -8 -14 -5 -5 2 -8 -5 -7 -17 1 -22 26 -39 26 -18 0 6 -5
8 -11 4 -7 -4 -10 -1 -7 7 3 8 14 13 24 11 16 -2 17 -1 4 7 -13 10 -8 15 12
12 4 0 5 6 1 15 -6 17 14 16 35 -4 8 -7 17 -10 22 -7 5 3 10 -1 12 -7 3 -7 16
-13 29 -14 13 -1 31 -4 40 -8 10 -4 16 -2 16 7 0 9 -7 12 -20 9 -14 -3 -18 -1
-13 6 5 8 1 10 -10 5 -12 -4 -15 -3 -10 5 4 7 -6 18 -28 28 -40 20 -45 6 55
158 36 56 126 196 199 311 73 116 156 246 185 290 28 44 127 200 221 347 l169
268 243 0 242 0 0 70 0 69 108 -45 c181 -77 325 -134 338 -134 7 0 14 -5 16
-12 5 -13 28 -2 28 13 0 6 -5 7 -12 3 -7 -5 -8 -3 -3 6 6 10 11 10 20 -3 7 -9
16 -13 20 -9 5 4 4 1 0 -7 -6 -11 -4 -13 8 -8 9 3 19 3 21 -2 7 -11 -27 -10
-41 2 -9 6 -13 6 -13 -1 0 -10 24 -22 43 -22 4 0 21 -7 37 -15 27 -14 31 -14
36 -1 8 21 -4 36 -23 29 -11 -4 -14 -3 -9 5 5 8 1 10 -10 5 -13 -5 -15 -3 -9
7 5 8 4 11 -3 6 -6 -3 -17 1 -26 9 -8 9 -18 16 -20 16 -3 0 -20 6 -38 14 -24
9 -37 10 -46 3 -9 -8 -11 -7 -6 6 6 15 -10 22 -38 17 -5 0 -8 3 -8 7 0 5 -83
44 -185 88 l-185 78 0 228 0 228 -293 0 -292 0 -180 180 c-108 108 -176 183
-170 188 12 10 116 87 450 333 647 476 919 680 923 690 2 5 10 9 18 9 7 0 19
9 26 20 7 11 18 20 25 20 7 0 16 7 21 16 5 9 12 14 17 12 12 -5 16 40 5 47 -6
4 -13 -1 -16 -9 -3 -9 -11 -13 -16 -10 -6 4 -13 2 -17 -3 -3 -5 -24 -22 -46
-39 -22 -16 -44 -32 -50 -37 -5 -4 -83 -60 -172 -125 -161 -117 -670 -492
-953 -702 -14 -10 -78 -58 -144 -106 l-119 -88 -423 427 -424 427 0 222 0 223
178 99 c97 55 180 104 183 109 3 5 10 9 15 9 18 -1 83 41 78 49 -3 5 1 6 9 3
8 -3 21 2 30 10 9 9 20 16 26 16 6 0 11 5 11 11 0 5 5 7 10 4 6 -3 10 -1 10 5
0 6 4 9 10 5 5 -3 18 3 30 15 11 11 24 20 28 20 24 0 71 32 65 45 -3 8 0 15 6
15 6 0 11 -6 11 -12 0 -10 2 -10 9 0 4 8 12 13 17 12 17 -3 14 15 -6 27 -12 8
-21 9 -25 3 -3 -6 1 -10 10 -10 9 0 14 -4 11 -9 -3 -5 -19 -7 -35 -5 -19 2
-31 -2 -35 -12 -3 -8 -9 -13 -14 -10 -12 7 -38 -12 -29 -21 5 -4 12 -2 16 6 7
10 9 10 14 -1 6 -18 -22 -20 -42 -4 -12 9 -13 8 -9 -6 4 -9 1 -24 -6 -33 -11
-15 -12 -15 -12 4 0 11 5 17 10 14 5 -3 6 -1 2 5 -8 13 -90 -29 -121 -62 -11
-12 -16 -16 -11 -9 5 8 4 13 -2 13 -6 0 -13 -4 -17 -9 -3 -6 -18 -16 -33 -23
-43 -22 -178 -96 -283 -154 -52 -30 -98 -54 -102 -54 -4 0 -7 16 -7 35 l0 35
-325 0 -325 0 0 -119 0 -119 -432 110 c-238 61 -442 112 -453 113 -11 1 -27 5
-35 8 -35 13 -65 16 -76 6 -8 -7 -10 -3 -7 14 3 17 -2 26 -19 34 -13 7 -17 12
-10 12 7 1 10 6 6 13 -5 7 -3 8 5 3 9 -5 12 0 9 16 -2 13 -9 23 -16 21 -10 -2
-10 3 -3 17 6 10 9 20 6 22 -2 2 -6 22 -9 44 -9 70 -15 86 -38 105 -13 11 -18
19 -13 20 6 0 16 -5 23 -12 7 -7 12 -9 12 -4 0 4 -6 14 -14 21 -11 11 -16 12
-23 2z m21 -46 c15 -17 15 -19 1 -25 -10 -3 -14 -2 -10 5 4 5 1 16 -5 24 -18
22 -6 18 14 -4z m2389 -14 c3 -7 -3 -13 -14 -14 -15 -1 -16 1 -6 12 15 18 14
18 20 2z m-2353 -171 c0 -3 -4 -8 -10 -11 -5 -3 -10 -1 -10 4 0 6 5 11 10 11
6 0 10 -2 10 -4z m100 -148 c0 -5 6 -8 13 -8 10 0 839 -208 900 -226 15 -5 17
-23 17 -185 l0 -179 105 0 c58 0 105 -2 105 -4 0 -3 -51 -161 -139 -431 -47
-142 -241 -738 -392 -1205 -39 -118 -78 -237 -87 -265 l-17 -50 -58 -3 c-49
-3 -57 -1 -58 15 0 10 -3 29 -5 43 -7 41 -45 254 -48 275 -2 11 -9 47 -14 80
-12 64 -36 201 -77 435 -13 80 -27 156 -30 170 -3 14 -10 52 -15 85 -5 33 -12
69 -14 80 -7 39 -16 90 -22 129 -3 21 -8 48 -10 60 -7 30 -23 116 -28 151 -3
17 -17 98 -32 180 -14 83 -28 160 -29 172 -2 12 -6 34 -9 50 -9 39 -13 64 -20
109 -4 22 -8 46 -11 54 -6 22 -14 69 -21 125 -4 28 -10 52 -15 53 -5 2 -7 8
-4 12 8 13 -6 91 -15 85 -4 -2 -6 8 -4 23 5 42 -6 93 -20 85 -6 -4 -5 1 3 10
7 9 10 17 5 17 -5 0 -10 15 -11 34 -2 31 0 34 28 32 16 0 29 -4 29 -8z m-45
-137 c3 -5 2 -12 -3 -15 -5 -3 -9 1 -9 9 0 17 3 19 12 6z m0 -80 c3 -5 2 -12
-3 -15 -5 -3 -9 1 -9 9 0 17 3 19 12 6z m4002 -70 c0 -11 -4 -19 -7 -19 -20 2
-30 -4 -24 -14 4 -7 3 -8 -4 -4 -6 4 -9 13 -6 21 4 8 10 12 15 9 5 -3 12 2 15
10 8 22 13 20 11 -3z m-62 -40 c-3 -6 -11 -11 -16 -11 -5 0 -4 6 3 14 14 16
24 13 13 -3z m-10 -31 c-3 -5 -12 -10 -18 -10 -7 0 -6 4 3 10 19 12 23 12 15
0z m-1910 -640 c220 -220 401 -404 403 -409 2 -5 -55 -51 -125 -103 -70 -52
-319 -236 -553 -408 -234 -172 -465 -343 -515 -380 -354 -263 -446 -330 -450
-330 -3 0 -5 16 -5 35 l0 35 -85 0 c-47 0 -85 3 -85 6 0 3 32 103 71 222 78
238 195 596 296 907 36 110 98 301 138 425 40 124 86 264 101 313 l28 87 191
0 191 0 399 -400z m785 -993 l0 -203 -127 -36 c-71 -20 -220 -64 -333 -96
-113 -33 -324 -95 -470 -137 -146 -43 -326 -95 -400 -116 -74 -22 -142 -42
-150 -44 -8 -2 -125 -36 -260 -75 -135 -39 -255 -73 -267 -76 -21 -6 -23 -3
-23 35 l0 41 153 113 c83 62 292 216 462 342 396 292 443 326 720 531 127 94
259 192 295 218 l65 47 168 -170 167 -171 0 -203z m0 -346 l0 -90 50 -3 51 -3
-376 -593 c-207 -326 -373 -597 -370 -603 4 -5 1 -8 -7 -7 -7 2 -13 -4 -13
-12 0 -8 -8 -22 -18 -30 -10 -8 -19 -25 -20 -37 0 -12 -4 -20 -8 -17 -4 2 -10
0 -14 -6 -3 -5 -1 -10 5 -10 6 0 8 -4 5 -10 -3 -5 -1 -10 4 -10 6 0 11 5 11
12 0 6 3 8 6 5 4 -4 2 -12 -4 -20 -11 -13 -2 -39 14 -38 21 2 41 -10 41 -24 0
-20 -13 -19 -21 1 -3 8 -10 12 -16 9 -5 -3 -19 9 -30 28 -22 37 -82 73 -102
61 -6 -4 -8 -3 -4 4 3 6 2 13 -3 16 -5 4 -12 -2 -14 -11 -4 -14 -5 -13 -6 4
-1 22 -32 39 -51 28 -5 -3 -7 0 -4 9 3 9 -3 17 -17 21 -12 4 -47 22 -78 40
-31 17 -85 48 -121 67 -73 40 -508 276 -585 318 -27 15 -114 62 -192 104
l-143 78 0 108 c0 60 3 111 8 113 4 3 174 53 377 112 204 59 447 129 540 157
94 27 184 53 200 58 41 10 756 218 830 240 33 11 63 19 68 19 4 1 7 -39 7 -88z
m1250 -179 c0 -10 -5 -10 -22 -1 -32 16 -32 17 -4 15 14 0 26 -7 26 -14z
m-4193 -465 c-2 -6 -10 -11 -19 -13 -10 -1 -15 3 -12 10 6 15 36 17 31 3z
m2033 -691 c0 -2 -9 -6 -20 -9 -11 -3 -18 -1 -14 4 5 9 34 13 34 5z m-1270
-71 c7 -9 10 -18 6 -22 -3 -3 -6 -1 -6 6 0 7 -5 9 -12 5 -6 -4 -8 -3 -4 4 3 5
0 13 -6 15 -8 4 -9 6 -2 6 6 1 17 -6 24 -14z m1400 -21 c0 -17 -10 -17 -33 0
-16 12 -15 14 8 14 15 0 25 -6 25 -14z m24 -6 c-5 -8 -1 -9 10 -5 10 4 15 3
11 -3 -3 -6 -1 -10 4 -10 6 0 11 -5 11 -11 0 -5 -4 -8 -9 -4 -6 3 -14 -3 -20
-12 -9 -17 -10 -16 -10 2 1 11 -2 30 -5 43 -3 13 -1 20 5 17 5 -4 6 -11 3 -17z"/>
<path d="M2730 4421 c0 -7 -5 -9 -12 -5 -7 4 -8 3 -4 -4 4 -6 13 -9 21 -5 11
4 13 1 9 -11 -3 -9 -4 -16 -1 -16 13 0 14 30 1 40 -11 10 -14 10 -14 1z"/>
<path d="M95 4140 c-3 -5 -1 -10 4 -10 6 0 11 5 11 10 0 6 -2 10 -4 10 -3 0
-8 -4 -11 -10z"/>
<path d="M136 4135 c-9 -26 -7 -32 5 -12 6 10 9 21 6 23 -2 3 -7 -2 -11 -11z"/>
<path d="M156 4125 c-3 -8 -1 -15 4 -15 6 0 10 7 10 15 0 8 -2 15 -4 15 -2 0
-6 -7 -10 -15z"/>
<path d="M180 4120 c1 -11 46 -36 65 -35 11 0 23 -4 27 -10 4 -5 11 -6 15 -1
4 5 2 11 -5 13 -10 4 -10 8 -1 19 6 8 8 14 4 14 -4 0 -14 -8 -22 -17 -13 -16
-13 -16 -8 7 4 17 3 21 -3 11 -5 -7 -12 -9 -14 -5 -3 5 -3 4 -2 -3 2 -7 -2
-15 -8 -19 -7 -5 -8 -2 -3 6 5 9 4 11 -3 6 -8 -4 -10 -2 -6 8 4 10 0 14 -15
13 -12 -1 -21 -4 -21 -7z"/>
<path d="M4470 3861 c0 -6 4 -12 8 -15 5 -3 9 1 9 9 0 8 -4 15 -9 15 -4 0 -8
-4 -8 -9z"/>
<path d="M4432 3824 c-7 -8 -8 -14 -3 -14 10 0 25 19 20 25 -2 1 -10 -3 -17
-11z"/>
<path d="M4393 3799 c-12 -12 -6 -49 8 -49 5 0 6 7 3 15 -4 10 -2 13 8 10 9
-4 15 0 15 9 0 8 -6 12 -15 8 -10 -3 -13 -1 -8 6 9 15 3 15 -11 1z"/>
<path d="M4445 3800 c-3 -6 1 -7 9 -4 18 7 21 14 7 14 -6 0 -13 -4 -16 -10z"/>
<path d="M4473 1523 c4 -3 1 -13 -6 -22 -11 -14 -10 -14 5 -2 16 12 16 31 1
31 -4 0 -3 -3 0 -7z"/>
<path d="M265 1080 c3 -5 11 -10 16 -10 6 0 7 5 4 10 -3 6 -11 10 -16 10 -6 0
-7 -4 -4 -10z"/>
<path d="M155 1060 c-16 -7 -17 -9 -3 -9 9 -1 20 4 23 9 7 11 7 11 -20 0z"/>
<path d="M116 1018 c3 -5 10 -6 15 -3 13 9 11 12 -6 12 -8 0 -12 -4 -9 -9z"/>
<path d="M973 244 c-3 -8 0 -20 6 -28 6 -7 9 -22 5 -32 -4 -14 -3 -15 4 -6 5
8 12 13 16 12 4 -1 10 0 14 3 4 2 1 2 -5 1 -7 -2 -13 1 -13 6 0 6 4 10 9 10 6
0 9 9 8 19 -1 24 -36 35 -44 15z m33 -21 c-10 -11 -19 -7 -22 10 -2 15 0 16
12 6 8 -6 12 -14 10 -16z"/>
<path d="M1013 165 c-3 -9 -3 -18 -1 -21 3 -3 8 4 11 16 6 23 -1 27 -10 5z"/>
<path d="M2597 166 c-4 -9 -3 -15 2 -11 5 3 11 0 13 -7 3 -7 7 -5 11 6 4 9 3
15 -2 11 -5 -3 -11 0 -13 7 -3 7 -7 5 -11 -6z"/>
<path d="M2370 140 c0 -5 5 -10 11 -10 5 0 7 5 4 10 -3 6 -8 10 -11 10 -2 0
-4 -4 -4 -10z"/>
<path d="M2638 128 c2 -10 6 -18 7 -18 1 0 5 8 7 18 3 11 0 19 -7 19 -7 0 -10
-8 -7 -19z"/>
<path d="M2670 121 c0 -6 4 -13 10 -16 6 -3 7 1 4 9 -7 18 -14 21 -14 7z"/>
<path d="M1015 100 c3 -5 8 -10 11 -10 2 0 4 5 4 10 0 6 -5 10 -11 10 -5 0 -7
-4 -4 -10z"/>
<path d="M2330 80 c0 -5 5 -10 11 -10 5 0 7 5 4 10 -3 6 -8 10 -11 10 -2 0 -4
-4 -4 -10z"/>
</g>
</svg>
